<svg width="17" height="17" viewBox="0 0 17 17" fill="none" xmlns="http://www.w3.org/2000/svg">
<path d="M4.01733 16.5714H0.780343V5.93557H4.10983V16.5714H4.01733ZM2.3526 4.4558C1.33526 4.4558 0.4104 3.62344 0.4104 2.51361C0.4104 1.49627 1.24277 0.571411 2.3526 0.571411C3.36993 0.571411 4.29479 1.40378 4.29479 2.51361C4.29479 3.62344 3.46243 4.4558 2.3526 4.4558ZM16.4104 16.5714H13.0809V11.3922C13.0809 10.1899 13.0809 8.61765 11.4162 8.61765C9.65896 8.61765 9.47399 9.91245 9.47399 11.2997V16.5714H6.14451V5.93557H9.28901V7.41534C9.75144 6.58297 10.7688 5.7506 12.4335 5.7506C15.7631 5.7506 16.4104 7.97025 16.4104 10.8373V16.5714Z" fill="white"/>
</svg>
